<svg width="33" height="32" viewBox="0 0 33 32" fill="none" xmlns="http://www.w3.org/2000/svg">
<g id="Chats">
<path id="Vector" d="M29.5 12C29.5 11.4696 29.2893 10.9609 28.9142 10.5858C28.5391 10.2107 28.0304 10 27.5 10H23.5V6C23.5 5.46957 23.2893 4.96086 22.9142 4.58579C22.5391 4.21071 22.0304 4 21.5 4H5.5C4.96957 4 4.46086 4.21071 4.08579 4.58579C3.71071 4.96086 3.5 5.46957 3.5 6V22C3.50059 22.1881 3.55423 22.3723 3.65478 22.5313C3.75532 22.6903 3.89868 22.8177 4.06839 22.8989C4.2381 22.9801 4.42728 23.0118 4.61418 22.9903C4.80108 22.9689 4.97814 22.8951 5.125 22.7775L9.5 19.25V23C9.5 23.5304 9.71071 24.0391 10.0858 24.4142C10.4609 24.7893 10.9696 25 11.5 25H23.1987L27.875 28.7775C28.0519 28.9206 28.2724 28.9991 28.5 29C28.7652 29 29.0196 28.8946 29.2071 28.7071C29.3946 28.5196 29.5 28.2652 29.5 28V12ZM24.1812 23.2225C24.0043 23.0794 23.7838 23.0009 23.5562 23H11.5V19H21.5C22.0304 19 22.5391 18.7893 22.9142 18.4142C23.2893 18.0391 23.5 17.5304 23.5 17V12H27.5V25.9062L24.1812 23.2225Z" fill="#068FFF"/>
</g>
</svg>
