<svg width="33" height="32" viewBox="0 0 33 32" fill="none" xmlns="http://www.w3.org/2000/svg">
<g id="Gear">
<path id="Vector" d="M16.5 10.0001C15.3133 10.0001 14.1533 10.352 13.1666 11.0112C12.1799 11.6705 11.4108 12.6076 10.9567 13.704C10.5026 14.8003 10.3838 16.0067 10.6153 17.1706C10.8468 18.3345 11.4182 19.4036 12.2574 20.2427C13.0965 21.0818 14.1656 21.6533 15.3295 21.8848C16.4933 22.1163 17.6997 21.9975 18.7961 21.5433C19.8925 21.0892 20.8295 20.3202 21.4888 19.3335C22.1481 18.3468 22.5 17.1867 22.5 16.0001C22.4983 14.4093 21.8657 12.8841 20.7408 11.7592C19.616 10.6344 18.0908 10.0017 16.5 10.0001ZM16.5 20.0001C15.7089 20.0001 14.9355 19.7655 14.2777 19.3259C13.6199 18.8864 13.1072 18.2617 12.8045 17.5308C12.5017 16.7999 12.4225 15.9956 12.5769 15.2197C12.7312 14.4438 13.1122 13.731 13.6716 13.1716C14.231 12.6122 14.9437 12.2313 15.7196 12.0769C16.4956 11.9226 17.2998 12.0018 18.0307 12.3045C18.7616 12.6073 19.3863 13.12 19.8259 13.7778C20.2654 14.4356 20.5 15.2089 20.5 16.0001C20.5 17.0609 20.0786 18.0783 19.3284 18.8285C18.5783 19.5786 17.5609 20.0001 16.5 20.0001ZM27.5 16.2701C27.505 16.0901 27.505 15.9101 27.5 15.7301L29.365 13.4001C29.4628 13.2777 29.5305 13.1341 29.5626 12.9808C29.5947 12.8276 29.5904 12.6689 29.55 12.5176C29.2443 11.3683 28.7869 10.2649 28.19 9.23631C28.1118 9.1017 28.0033 8.9872 27.8731 8.90192C27.7429 8.81664 27.5946 8.76292 27.44 8.74506L24.475 8.41506C24.3517 8.28506 24.2267 8.16006 24.1 8.04006L23.75 5.06756C23.732 4.91282 23.6781 4.76443 23.5926 4.63422C23.5071 4.50401 23.3923 4.39557 23.2575 4.31756C22.2285 3.72174 21.1252 3.26485 19.9762 2.95881C19.8248 2.91855 19.6661 2.91444 19.5128 2.94679C19.3595 2.97914 19.216 3.04705 19.0937 3.14506L16.77 5.00006C16.59 5.00006 16.41 5.00006 16.23 5.00006L13.9 3.13881C13.7777 3.04102 13.6341 2.97333 13.4808 2.9412C13.3275 2.90906 13.1688 2.91338 13.0175 2.95381C11.8684 3.26009 10.7651 3.71741 9.73625 4.31381C9.60164 4.39196 9.48714 4.50046 9.40186 4.63067C9.31658 4.76087 9.26286 4.90919 9.245 5.06381L8.915 8.03381C8.785 8.15797 8.66 8.28297 8.54 8.40881L5.5675 8.75006C5.41276 8.76806 5.26437 8.82196 5.13416 8.90747C5.00395 8.99298 4.89551 9.10772 4.8175 9.24256C4.22168 10.2715 3.76479 11.3749 3.45875 12.5238C3.41849 12.6752 3.41438 12.834 3.44673 12.9872C3.47908 13.1405 3.54699 13.2841 3.645 13.4063L5.5 15.7301C5.5 15.9101 5.5 16.0901 5.5 16.2701L3.63875 18.6001C3.54096 18.7224 3.47327 18.866 3.44114 19.0193C3.409 19.1726 3.41332 19.3312 3.45375 19.4826C3.75948 20.6318 4.21683 21.7352 4.81375 22.7638C4.8919 22.8984 5.0004 23.0129 5.13061 23.0982C5.26081 23.1835 5.40913 23.2372 5.56375 23.2551L8.52875 23.5851C8.65291 23.7151 8.77791 23.8401 8.90375 23.9601L9.25 26.9326C9.268 27.0873 9.3219 27.2357 9.40741 27.3659C9.49291 27.4961 9.60766 27.6045 9.7425 27.6826C10.7715 28.2784 11.8748 28.7353 13.0237 29.0413C13.1752 29.0816 13.3339 29.0857 13.4872 29.0533C13.6405 29.021 13.784 28.9531 13.9062 28.8551L16.23 27.0001C16.41 27.0051 16.59 27.0051 16.77 27.0001L19.1 28.8651C19.2223 28.9628 19.3659 29.0305 19.5192 29.0627C19.6725 29.0948 19.8312 29.0905 19.9825 29.0501C21.1317 28.7443 22.2352 28.287 23.2637 27.6901C23.3983 27.6119 23.5128 27.5034 23.5981 27.3732C23.6834 27.243 23.7371 27.0947 23.755 26.9401L24.085 23.9751C24.215 23.8517 24.34 23.7267 24.46 23.6001L27.4325 23.2501C27.5872 23.2321 27.7356 23.1782 27.8658 23.0926C27.996 23.0071 28.1045 22.8924 28.1825 22.7576C28.7783 21.7286 29.2352 20.6253 29.5412 19.4763C29.5815 19.3249 29.5856 19.1662 29.5533 19.0129C29.5209 18.8596 29.453 18.716 29.355 18.5938L27.5 16.2701ZM25.4875 15.4576C25.5087 15.8189 25.5087 16.1812 25.4875 16.5426C25.4726 16.79 25.5501 17.0341 25.705 17.2276L27.4787 19.4438C27.2752 20.0906 27.0146 20.7181 26.7 21.3188L23.875 21.6388C23.629 21.6661 23.4018 21.7837 23.2375 21.9688C22.9969 22.2394 22.7406 22.4957 22.47 22.7363C22.2849 22.9006 22.1673 23.1278 22.14 23.3738L21.8262 26.1963C21.2256 26.5111 20.5981 26.7717 19.9512 26.9751L17.7337 25.2013C17.5563 25.0595 17.3359 24.9824 17.1087 24.9826H17.0487C16.6874 25.0038 16.3251 25.0038 15.9637 24.9826C15.7163 24.9677 15.4722 25.0452 15.2787 25.2001L13.0562 26.9751C12.4094 26.7715 11.7819 26.5109 11.1812 26.1963L10.8612 23.3751C10.8339 23.129 10.7164 22.9019 10.5312 22.7376C10.2606 22.4969 10.0044 22.2407 9.76375 21.9701C9.59941 21.7849 9.37226 21.6674 9.12625 21.6401L6.30375 21.3251C5.98899 20.7244 5.72837 20.0969 5.525 19.4501L7.29875 17.2326C7.45363 17.0391 7.53114 16.795 7.51625 16.5476C7.495 16.1862 7.495 15.8239 7.51625 15.4626C7.53114 15.2152 7.45363 14.971 7.29875 14.7776L5.525 12.5563C5.72853 11.9095 5.98914 11.282 6.30375 10.6813L9.125 10.3613C9.37101 10.334 9.59816 10.2164 9.7625 10.0313C10.0031 9.76069 10.2594 9.50442 10.53 9.26381C10.7158 9.09937 10.8339 8.8717 10.8612 8.62506L11.175 5.80381C11.7756 5.48905 12.4031 5.22843 13.05 5.02506L15.2675 6.79881C15.461 6.95369 15.7051 7.0312 15.9525 7.01631C16.3139 6.99506 16.6761 6.99506 17.0375 7.01631C17.2849 7.0312 17.529 6.95369 17.7225 6.79881L19.9437 5.02506C20.5906 5.22859 21.218 5.4892 21.8187 5.80381L22.1387 8.62506C22.1661 8.87108 22.2836 9.09822 22.4687 9.26256C22.7394 9.50317 22.9956 9.75944 23.2362 10.0301C23.4006 10.2152 23.6277 10.3327 23.8737 10.3601L26.6962 10.6738C27.011 11.2744 27.2716 11.9019 27.475 12.5488L25.7012 14.7663C25.5449 14.9614 25.4673 15.2081 25.4837 15.4576H25.4875Z" fill="#4E4FEB"/>
</g>
</svg>
