<svg width="33" height="32" viewBox="0 0 33 32" fill="none" xmlns="http://www.w3.org/2000/svg">
<g id="Snowflake">
<path id="Vector" d="M28.4712 18.7613C28.5026 18.8889 28.5085 19.0213 28.4887 19.1512C28.4689 19.281 28.4236 19.4057 28.3556 19.5181C28.2876 19.6304 28.1981 19.7283 28.0922 19.8061C27.9864 19.8838 27.8663 19.94 27.7387 19.9713L24.6587 20.7213L25.4662 23.7351C25.5002 23.862 25.5089 23.9943 25.4918 24.1246C25.4746 24.2548 25.432 24.3804 25.3663 24.4942C25.3006 24.6079 25.2131 24.7076 25.1088 24.7876C25.0046 24.8675 24.8856 24.9261 24.7587 24.9601C24.6745 24.9843 24.5876 24.9978 24.5 25.0001C24.28 24.9999 24.0662 24.9271 23.8917 24.7931C23.7173 24.6591 23.5919 24.4713 23.535 24.2588L22.57 20.6588L17.5 17.7326V23.5863L20.2075 26.2926C20.3004 26.3855 20.3741 26.4958 20.4243 26.6172C20.4746 26.7386 20.5005 26.8687 20.5005 27.0001C20.5005 27.1315 20.4746 27.2616 20.4243 27.383C20.3741 27.5044 20.3004 27.6147 20.2075 27.7076C20.1145 27.8005 20.0042 27.8742 19.8828 27.9245C19.7615 27.9747 19.6313 28.0006 19.5 28.0006C19.3686 28.0006 19.2384 27.9747 19.1171 27.9245C18.9957 27.8742 18.8854 27.8005 18.7925 27.7076L16.5 25.4138L14.2075 27.7076C14.1145 27.8005 14.0042 27.8742 13.8828 27.9245C13.7615 27.9747 13.6313 28.0006 13.5 28.0006C13.3686 28.0006 13.2384 27.9747 13.1171 27.9245C12.9957 27.8742 12.8854 27.8005 12.7925 27.7076C12.6995 27.6147 12.6258 27.5044 12.5756 27.383C12.5253 27.2616 12.4994 27.1315 12.4994 27.0001C12.4994 26.8687 12.5253 26.7386 12.5756 26.6172C12.6258 26.4958 12.6995 26.3855 12.7925 26.2926L15.5 23.5863V17.7326L10.4312 20.6588L9.4662 24.2588C9.40923 24.4715 9.28364 24.6595 9.10893 24.7935C8.93422 24.9275 8.72015 25.0001 8.49995 25.0001C8.4122 24.9999 8.32483 24.9886 8.23995 24.9663C8.11304 24.9324 7.99406 24.8738 7.88982 24.7938C7.78557 24.7139 7.69809 24.6142 7.63239 24.5004C7.56669 24.3866 7.52404 24.2611 7.5069 24.1308C7.48975 24.0006 7.49843 23.8682 7.53245 23.7413L8.33995 20.7276L5.25995 19.9776C5.00236 19.9142 4.78047 19.7512 4.6431 19.5243C4.50573 19.2974 4.46413 19.0252 4.52745 18.7676C4.59077 18.51 4.75383 18.2881 4.98075 18.1507C5.20767 18.0133 5.47986 17.9717 5.73745 18.0351L9.4187 18.9388L14.5 16.0001L9.41995 13.0676L5.7387 13.9713C5.6606 13.9907 5.58041 14.0003 5.49995 14.0001C5.25544 14.0002 5.01934 13.9108 4.83629 13.7487C4.65323 13.5866 4.53592 13.363 4.50652 13.1203C4.47712 12.8776 4.53767 12.6325 4.67673 12.4313C4.81579 12.2302 5.02372 12.087 5.2612 12.0288L8.3412 11.2788L7.5337 8.25882C7.46508 8.00255 7.50106 7.72952 7.63375 7.49979C7.76643 7.27006 7.98494 7.10244 8.2412 7.03382C8.49747 6.96519 8.7705 7.00118 9.00023 7.13386C9.22996 7.26654 9.39758 7.48505 9.4662 7.74132L10.4312 11.3413L15.5 14.2676V8.41382L12.7925 5.70757C12.6048 5.51993 12.4994 5.26543 12.4994 5.00007C12.4994 4.86867 12.5253 4.73856 12.5756 4.61717C12.6258 4.49578 12.6995 4.38548 12.7925 4.29257C12.8854 4.19966 12.9957 4.12596 13.1171 4.07567C13.2384 4.02539 13.3686 3.99951 13.5 3.99951C13.7653 3.99951 14.0198 4.10493 14.2075 4.29257L16.5 6.58632L18.7925 4.29257C18.9801 4.10493 19.2346 3.99951 19.5 3.99951C19.7653 3.99951 20.0198 4.10493 20.2075 4.29257C20.3951 4.48021 20.5005 4.7347 20.5005 5.00007C20.5005 5.26543 20.3951 5.51993 20.2075 5.70757L17.5 8.41382V14.2676L22.5687 11.3413L23.5337 7.74132C23.6023 7.48505 23.7699 7.26654 23.9997 7.13386C24.2294 7.00118 24.5024 6.96519 24.7587 7.03382C25.015 7.10244 25.2335 7.27006 25.3662 7.49979C25.4988 7.72952 25.5348 8.00255 25.4662 8.25882L24.6587 11.2726L27.7387 12.0226C27.9828 12.0747 28.1986 12.2162 28.3437 12.4194C28.4887 12.6225 28.5526 12.8726 28.5226 13.1204C28.4927 13.3682 28.3712 13.5959 28.182 13.7586C27.9927 13.9214 27.7495 14.0075 27.5 14.0001C27.4195 14.0003 27.3393 13.9907 27.2612 13.9713L23.58 13.0676L18.5 16.0001L23.58 18.9326L27.2612 18.0288C27.3887 17.9974 27.5212 17.9915 27.6511 18.0113C27.7809 18.0312 27.9056 18.0764 28.0179 18.1444C28.1303 18.2124 28.2282 18.3019 28.3059 18.4078C28.3837 18.5136 28.4399 18.6338 28.4712 18.7613Z" fill="#4E4FEB"/>
</g>
</svg>
