<svg width="155" height="139" viewBox="0 0 155 139" fill="none" xmlns="http://www.w3.org/2000/svg">
<g id="splatListening">
<path id="XMLID_194_" d="M118.225 48.2306L109.104 32.5284C103.881 23.5386 94.2218 18 83.7698 18H65.5196C55.0676 18 45.4153 23.5386 40.1858 32.5284L31.0642 48.2306C25.8417 57.2203 25.8417 68.2976 31.0642 77.2874L40.1858 92.9825C45.4082 101.972 55.0676 107.511 65.5196 107.511C67.593 107.511 68.7394 109.873 67.4727 111.503C66.3121 112.993 65.003 114.315 63.6231 115.489C60.9765 117.731 63.3259 121.927 66.6164 120.816C75.2568 117.913 81.1232 113.345 85.1143 108.375C85.546 107.834 86.19 107.504 86.8835 107.462C95.7927 106.906 103.881 101.965 108.382 94.2266L118.225 77.2944C123.455 68.2906 123.455 57.2203 118.225 48.2306Z" fill="#D9D9D9"/>
<g id="Group 1">
<ellipse id="Ellipse 1" cx="58.3235" cy="47.101" rx="6.17616" ry="6.101" fill="#4E4FEB"/>
<ellipse id="Ellipse 3" cx="76.852" cy="51.1515" rx="9.26424" ry="9.15151" fill="#4E4FEB"/>
<ellipse id="Ellipse 2" cx="95.3805" cy="47.101" rx="6.17616" ry="6.101" fill="#4E4FEB"/>
<path id="Vector 1" d="M68.6171 64V64C73.5089 67.6242 80.1951 67.6242 85.0869 64V64" stroke="#4E4FEB" stroke-width="4.1206" stroke-linecap="round"/>
</g>
</g>
</svg>
