<svg width="192" height="174" viewBox="0 0 192 174" fill="none" xmlns="http://www.w3.org/2000/svg">
<g id="splatTalking">
<path id="XMLID_194_" d="M35.7844 59.3319L47.7192 38.6261C54.5524 26.7717 67.1909 19.4681 80.8665 19.4681H104.745C118.421 19.4681 131.05 26.7717 137.893 38.6261L149.828 59.3319C156.661 71.1862 156.661 85.7934 149.828 97.6477L137.893 118.344C131.06 130.199 118.421 137.502 104.745 137.502C102.033 137.502 100.533 140.616 102.19 142.767C103.708 144.732 105.421 146.474 107.227 148.022C110.69 150.979 107.616 156.512 103.31 155.047C92.0051 151.22 84.3294 145.195 79.1073 138.642C78.5425 137.929 77.6999 137.493 76.7925 137.437C65.1354 136.705 54.5524 130.189 48.6637 119.985L35.7844 97.657C28.942 85.7841 28.942 71.1862 35.7844 59.3319Z" fill="#068FFF"/>
<g id="Group 1">
<ellipse id="Ellipse 1" cx="72.623" cy="68.8332" rx="7.69424" ry="7.60061" fill="#D9D9D9"/>
<ellipse id="Ellipse 3" cx="95.7058" cy="68.8333" rx="11.5414" ry="11.4009" fill="#D9D9D9"/>
<ellipse id="Ellipse 2" cx="118.788" cy="68.8332" rx="7.69424" ry="7.60061" fill="#D9D9D9"/>
<path id="Vector 1" d="M85.4468 86.5679V86.5679C91.5409 91.0829 99.8706 91.0829 105.965 86.5679V86.5679" stroke="#D9D9D9" stroke-width="5.13343" stroke-linecap="round"/>
</g>
</g>
</svg>
