<svg width="125" height="137" viewBox="0 0 125 137" fill="none" xmlns="http://www.w3.org/2000/svg">
<path id="XMLID_194_" d="M5.78438 40.3319L17.7192 19.6261C24.5524 7.7717 37.1909 0.46814 50.8665 0.46814H74.7455C88.421 0.46814 101.05 7.7717 107.893 19.6261L119.828 40.3319C126.661 52.1862 126.661 66.7933 119.828 78.6477L107.893 99.3442C101.06 111.199 88.421 118.502 74.7455 118.502C72.0326 118.502 70.5326 121.616 72.19 123.767C73.7085 125.732 75.4214 127.474 77.2269 129.022C80.6898 131.979 77.6158 137.512 73.3103 136.047C62.0051 132.22 54.3294 126.195 49.1073 119.642C48.5425 118.929 47.6999 118.493 46.7925 118.437C35.1354 117.705 24.5524 111.189 18.6637 100.985L5.78438 78.657C-1.05803 66.7841 -1.05803 52.1862 5.78438 40.3319Z" fill="#068FFF"/>
</svg>
